# xmcd
# 
# Track frame offsets:
#	183
#	24138
#	55480
#	74370
#	89275
#	118420
#	135065
#	153095
#	167088
#	185650
#	216125
#	229008
#	243100
#	261938
#	279468
#
# Disc length: 4052 seconds
#
# Revision: 3
# Processed by: cddbd v1.4PL0 Copyright (c) Steve Scherf et al.
# Submitted via: Audio-CD-Archiv 2.10.441
#
DISCID=c90fd20f
DTITLE=Various Artist - Blues with the girls
DYEAR=1900
DGENRE=blues
TTITLE0=Zora Young - Help me
TTITLE1=Zora Young - I feel so bad
TTITLE2=Zora Young - you don't have to go
TTITLE3=Zora Young - got my mojo workin'
TTITLE4=Zora Young - steppin' stone
TTITLE5=Bonnie Lee - Fast life
TTITLE6=Bonnie Lee - baby, what you want me to do
TTITLE7=Bonnie Lee - next time i see you
TTITLE8=Bonnie Lee - sad and evil woman
TTITLE9=Big Time Sarah - tribute  to big walter horton
TTITLE10=Big Time Sarah - hound dog
TTITLE11=Big Time Sarah - fever
TTITLE12=Big Time Sarah - Hoochie Coochie man
TTITLE13=Big Time Sarah - what makey my man tick
TTITLE14=Zora Young, Bonnie Lee, Big Time Sarah - well, i love ya'
EXTD=
EXTT0=
EXTT1=
EXTT2=
EXTT3=
EXTT4=
EXTT5=
EXTT6=
EXTT7=
EXTT8=
EXTT9=
EXTT10=
EXTT11=
EXTT12=
EXTT13=
EXTT14=
PLAYORDER=
